<svg class="KnotelLogo__Svg-rz8vzu-0 dEEhun" color="black" version="1.1" viewBox="0 0 157 27" xmlns="http://www.w3.org/2000/svg"><title id="knotelLogoTitle">Knotel Logo</title><g fill="none" fill-rule="evenodd" stroke="none" stroke-width="1"><g fill="currentColor" fill-rule="nonzero" transform="translate(-637.000000, -22.000000)"><g transform="translate(0.000000, -1.000000)"><g transform="translate(637.000000, 23.000000)"><path d="M35.1,11.4 C35.1,16.08 35.1,20.76 35.1,25.5 C32.94,25.5 30.84,25.5 28.74,25.5 C28.74,17.4 28.74,9.3 28.74,1.14 C28.92,1.14 29.1,1.08 29.28,1.08 C30.96,1.08 32.7,1.08 34.38,1.08 C34.68,1.08 35.1,1.26 35.28,1.5 C38.52,5.64 41.82,9.84 45.06,13.98 C45.3,14.34 45.66,14.64 45.9,14.94 C45.96,14.94 46.02,14.88 46.08,14.88 C46.08,10.32 46.08,5.76 46.08,1.14 C48.18,1.14 50.28,1.14 52.38,1.14 C52.38,9.24 52.38,17.34 52.38,25.56 C50.52,25.56 48.72,25.56 46.86,25.56 C46.68,25.56 46.5,25.38 46.38,25.2 C42.9,20.82 39.42,16.44 35.88,12.06 C35.7,11.82 35.46,11.58 35.22,11.34 C35.16,11.34 35.1,11.4 35.1,11.4 Z"></path><path d="M70.92,26.58 C63.72,26.76 57.78,20.64 57.6,13.74 C57.42,6.18 63.42,0 70.92,0 C78.54,0.06 84.18,6.06 84.24,13.38 C84.24,20.7 78.06,26.7 70.92,26.58 Z M77.94,13.32 C78,9.18 74.46,6 70.32,6.24 C66.78,6.42 63.66,9.78 63.78,13.5 C63.96,17.52 67.26,20.64 71.34,20.34 C75.24,20.16 78,16.92 77.94,13.32 Z"></path><path d="M6.84,10.8 C7.02,10.62 7.26,10.44 7.44,10.26 C10.14,7.32 12.84,4.44 15.54,1.5 C15.72,1.32 16.08,1.14 16.32,1.14 C18.96,1.14 21.66,1.14 24.3,1.14 C24.36,1.14 24.42,1.14 24.66,1.2 C23.82,2.1 22.98,2.88 22.2,3.72 C19.74,6.24 17.28,8.82 14.82,11.4 C14.7,11.52 14.64,12 14.76,12.18 C17.82,16.32 20.88,20.4 23.94,24.48 C24.18,24.78 24.42,25.14 24.78,25.62 C24.42,25.62 24.18,25.62 24,25.62 C21.66,25.62 19.32,25.62 17.04,25.62 C16.44,25.62 16.02,25.44 15.66,24.96 C13.86,22.38 12,19.86 10.2,17.34 C9.6,16.5 9.6,16.5 8.88,17.28 C6,20.34 3.12,23.4 0.24,26.52 C0.18,26.58 0.12,26.64 0,26.7 C0,18.18 0,9.78 0,1.26 C2.16,1.26 4.38,1.26 6.66,1.26 C6.66,4.44 6.66,7.62 6.66,10.8 C6.66,10.74 6.78,10.74 6.84,10.8 Z"></path><path d="M128.4,10.62 C128.4,12.42 128.4,14.16 128.4,15.96 C125.46,15.96 122.58,15.96 119.64,15.96 C119.64,17.22 119.64,18.3 119.64,19.44 C119.64,20.04 120.06,19.92 120.42,19.92 C123.66,19.92 126.9,19.92 130.14,19.92 C130.68,19.92 131.22,19.92 131.82,19.92 C131.82,21.78 131.82,23.64 131.82,25.5 C131.58,25.5 131.34,25.56 131.1,25.56 C125.34,25.56 119.58,25.56 113.82,25.56 C113.16,25.56 112.98,25.38 112.98,24.72 C112.98,17.16 112.98,9.6 112.98,2.04 C112.98,1.74 113.04,1.44 113.04,1.08 C119.28,1.08 125.52,1.08 131.76,1.08 C131.76,2.94 131.76,4.74 131.76,6.66 C131.52,6.66 131.28,6.66 131.04,6.66 C127.5,6.66 123.96,6.66 120.48,6.66 C119.7,6.66 119.52,6.9 119.58,7.62 C119.64,8.4 119.64,9.18 119.58,9.9 C119.52,10.44 119.76,10.62 120.3,10.56 C122.82,10.56 125.34,10.56 127.86,10.56 C128.1,10.62 128.22,10.62 128.4,10.62 Z"></path><path d="M94.2,7.14 C91.74,7.14 89.4,7.14 87,7.14 C87,5.1 87,3.18 87,1.14 C94.08,1.14 101.22,1.14 108.36,1.14 C108.36,3.12 108.36,5.1 108.36,7.14 C106.02,7.14 103.62,7.14 101.16,7.14 C101.16,13.32 101.16,19.38 101.16,25.56 C98.76,25.56 96.48,25.56 94.14,25.56 C94.2,19.38 94.2,13.32 94.2,7.14 Z"></path><path d="M145.2,25.56 C142.62,25.56 140.1,25.56 137.58,25.56 C137.58,17.4 137.58,9.3 137.58,1.14 C140.1,1.14 142.62,1.14 145.2,1.14 C145.2,9.24 145.2,17.34 145.2,25.56 Z"></path><path d="M156.18,25.56 C152.7,25.56 149.22,25.56 145.92,25.56 C149.28,22.14 152.7,18.66 156.18,15.06 C156.18,18.54 156.18,22.02 156.18,25.56 Z"></path></g></g></g></g></svg>